<html>
<head>
<meta charset="UTF-8">
<meta name="viewport" content="width=device-width, initial-scale=1.0"/>

<style>
.comment
{
    padding-left: 20px;
    margin-top: 4px;
    margin-right: 4px;
    margin-bottom: 4px;
    border: 2px #000 solid;
}
.submission
{
    border: 4px #00f solid;
    padding-left: 20px;
}
.hidden
{
    display: none;
}
</style>
</head>
<body><div class="submission" id="t3_7d249p">
    <p class="userinfo">
        <a href="https://www.reddit.com/u/MrWifeSteal007">MrWifeSteal007</a>
        <span class="score"> | 16 points</span>
        <span class="timestamp"> | Nov 15 2017 06:00:14</span>
    </p>
    <strong>[TV] [60FPS] Fresh Off the Boat S04E07 720p HDTV x265 - N0 M3rCY (380 MB)</strong>
    <p><p><a href="http://links.snahp.it/674fob60fps">Link</a></p>
<p><strong>Other 60 FPS uploads</strong></p>
<p>Guardians of The Galaxy 2014 - <a href="https://www.reddit.com/r/megalinks/comments/69w0gl/movie_guardians_of_the_galaxy_2014_1080p_bluray/">Link</a></p>
<p>Batman Begins 2005 - <a href="https://www.reddit.com/r/megalinks/comments/6aim5u/movie_batman_begins_2005_1080p_bluray_x265_663gb/">Link</a></p>
<p>Dark knight Rises 2008 -<a href="https://www.reddit.com/r/megalinks/comments/6ajkuk/movie_the_dark_knight_rises_1080p_bluray_x265_888/">Link</a></p>
<p>The Dark Kight Rises 2012 - <a href="https://www.reddit.com/r/megalinks/comments/6ajkuk/movie_the_dark_knight_rises_1080p_bluray_x265_888/">Link</a></p>
<p><strong>General</strong></p>
<p>Format                                   : Matroska
Format version                           : Version 4 / Version 2
File size                                : 381 MiB
Duration                                 : 21 min 23 s
Overall bit rate                         : 2 489 kb/s
Writing application                      : Lavf57.83.100
Writing library                          : Lavf57.83.100
ErrorDetectionType                       : Per level 1</p>
<p><strong>Video</strong></p>
<p>ID                                       : 1
Format                                   : HEVC
Format/Info                              : High Efficiency Video Coding
Format profile                           : Main@L5.2@High
Codec ID                                 : V_MPEGH/ISO/HEVC
Duration                                 : 21 min 23 s
Bit rate                                 : 2 055 kb/s
Width                                    : 1 280 pixels
Height                                   : 720 pixels
Display aspect ratio                     : 16:9
Frame rate mode                          : Constant
<strong>Frame rate                               : 59.940 (59940/1000) FPS</strong>
Standard                                 : Component
Color space                              : YUV
Chroma subsampling                       : 4:2:0
Bit depth                                : 8 bits
Bits/(Pixel*Frame)                       : 0.037
Stream size                              : 315 MiB (83%)
Default                                  : Yes
Forced                                   : No
Color range                              : Limited
Matrix coefficients                      : BT.709</p>
<p><strong>Audio</strong></p>
<p>ID                                       : 2
Format                                   : AC-3
Format/Info                              : Audio Coding 3
Codec ID                                 : A_AC3
Duration                                 : 21 min 23 s
Bit rate mode                            : Constant
Bit rate                                 : 384 kb/s
Channel(s)                               : 6 channels
Channel positions                        : Front: L C R, Side: L R, LFE
Sampling rate                            : 48.0 kHz
Frame rate                               : 31.250 FPS (1536 SPF)
Bit depth                                : 16 bits
Compression mode                         : Lossy
Stream size                              : 58.8 MiB (15%)
Service kind                             : Complete Main
Default                                  : Yes
Forced                                   : No</p></p>
    <p class="toolbar">
        <a href="https://www.reddit.com/r/megalinks/comments/7d249p">permalink</a>
    </p>
</div>

</body>

<script>
function toggle_collapse(comment_div)
{
    var button = comment_div.getElementsByClassName("toggle_hide_button")[0];
    var collapsible = comment_div.getElementsByClassName("collapsible")[0];
    if (collapsible.classList.contains("hidden"))
    {
        collapsible.classList.remove("hidden");
        button.innerText = "[-]";
    }
    else
    {
        collapsible.classList.add("hidden");
        button.innerText = "[+]";
    }
}
</script>
</html>
